<?xml version="1.0" encoding="utf-8"?>
<!-- Generator: Adobe Illustrator 23.0.1, SVG Export Plug-In . SVG Version: 6.00 Build 0)  -->
<svg version="1.1" id="Layer_1" xmlns="http://www.w3.org/2000/svg" xmlns:xlink="http://www.w3.org/1999/xlink" x="0px" y="0px"
	 viewBox="0 0 483.16 64.35" style="enable-background:new 0 0 483.16 64.35;" xml:space="preserve">
<g>
	<path d="M45.79,47.09c-1.34-0.08-3.26-0.13-5.77-0.13c-2.87,0-4.93,0.04-6.18,0.13c0-1.11,0.1-1.98,0.29-2.59
		c0.67-0.14,1.16-0.31,1.46-0.52c0.31-0.21,0.46-0.51,0.46-0.9c0-0.33-0.18-0.93-0.54-1.8l-0.96-2.26c-3.7,0-7.1,0.1-10.19,0.29
		l-0.54,1.38c-0.28,0.78-0.42,1.39-0.42,1.84c0,1.14,0.67,1.8,2.01,1.96c0.19,0.67,0.29,1.53,0.29,2.59
		c-0.95-0.08-2.44-0.13-4.47-0.13c-1.73,0-2.98,0.04-3.76,0.13c0-1.03,0.11-1.89,0.33-2.59c0.7-0.11,1.26-0.45,1.69-1.02
		c0.43-0.57,0.98-1.68,1.65-3.32l8.77-21.48c0.39-0.08,0.79-0.14,1.19-0.17c0.4-0.03,0.84-0.04,1.32-0.04l9.57,21.43
		c0.59,1.31,1.05,2.27,1.4,2.88c0.35,0.61,0.68,1.04,0.98,1.27c0.31,0.24,0.67,0.38,1.09,0.44C45.67,45.25,45.79,46.12,45.79,47.09z
		 M33.5,36.69l-2.26-5.26c-0.72-1.64-1.38-3.43-1.96-5.35c-0.56,1.84-1.17,3.61-1.84,5.31l-2.09,5.31H33.5z"/>
	<path d="M47.88,44.5c1.11-0.06,1.86-0.33,2.24-0.81c0.38-0.49,0.56-1.43,0.56-2.82V23.53c0-0.92-0.22-1.58-0.65-1.98
		c-0.43-0.4-1.25-0.63-2.44-0.69c0-1.06,0.15-1.88,0.46-2.47c1.36,0,2.8-0.15,4.3-0.44c1.5-0.29,2.56-0.61,3.18-0.94
		c0.84,0.33,1.25,1.07,1.25,2.21v21.64c0,1.39,0.18,2.33,0.54,2.82c0.36,0.49,1.06,0.76,2.09,0.81c0.17,0.53,0.25,1.39,0.25,2.59
		c-1.2-0.08-3.2-0.13-6.02-0.13c-2.87,0-4.89,0.04-6.06,0.13C47.58,45.98,47.68,45.12,47.88,44.5z"/>
	<path d="M82.35,29.65c1.48,1.46,2.21,3.67,2.21,6.62c0,2.15-0.47,4.05-1.42,5.73c-0.95,1.67-2.29,2.98-4.03,3.93
		c-1.74,0.95-3.74,1.42-6,1.42c-2.15,0-4.14-0.27-6-0.81c-1.85-0.54-3.22-1.26-4.12-2.15c0.33-0.39,0.58-0.94,0.73-1.65
		c0.15-0.71,0.23-1.69,0.23-2.95v-16c0-1.03-0.2-1.76-0.61-2.19c-0.4-0.43-1.23-0.68-2.49-0.73c0-1.06,0.15-1.88,0.46-2.47
		c1.36,0,2.8-0.15,4.3-0.44c1.5-0.29,2.56-0.61,3.18-0.94c0.84,0.33,1.25,1.07,1.25,2.21v8.86c0,1.06-0.08,2.01-0.25,2.84
		c0.31-0.47,0.64-0.86,1-1.17c0.56-0.58,1.32-1.11,2.3-1.59c0.97-0.47,2.05-0.71,3.22-0.71C78.86,27.45,80.87,28.19,82.35,29.65z
		 M76.75,43.14c1.03-1.13,1.55-3.11,1.55-5.95c0-1.89-0.36-3.42-1.09-4.57c-0.72-1.16-1.67-1.73-2.84-1.73
		c-1.2,0-2.21,0.58-3.05,1.73c-0.84,1.16-1.25,2.95-1.25,5.37v5.43c0.45,0.47,0.91,0.83,1.4,1.06c0.49,0.24,1.05,0.36,1.69,0.36
		C74.52,44.84,75.72,44.27,76.75,43.14z"/>
	<path d="M105.43,43.08c0.21,0.42,0.33,0.85,0.36,1.3c-1.06,1-2.26,1.75-3.59,2.24c-1.34,0.49-2.88,0.73-4.64,0.73
		c-3.4,0-5.94-0.91-7.63-2.72c-1.69-1.81-2.53-4.18-2.53-7.1c0-1.98,0.4-3.73,1.21-5.24c0.81-1.52,1.95-2.7,3.43-3.55
		c1.48-0.85,3.19-1.27,5.14-1.27c2.87,0,5.02,0.8,6.46,2.4c1.43,1.6,2.21,3.78,2.32,6.54c-0.17,0.81-0.52,1.48-1.04,2.01
		c-4.79,0-8.51,0.07-11.16,0.21c0.25,1.73,0.84,3.09,1.75,4.07c0.92,0.99,2.23,1.48,3.93,1.48c0.97,0,1.94-0.17,2.88-0.52
		c0.95-0.35,1.74-0.83,2.38-1.44C104.98,42.37,105.22,42.66,105.43,43.08z M94.61,31.53c-0.63,0.99-0.97,2.46-1.02,4.41h6.64
		c0-1.87-0.27-3.31-0.81-4.35c-0.54-1.03-1.33-1.55-2.36-1.55C96.05,30.04,95.24,30.54,94.61,31.53z"/>
	<path d="M126.3,33.68c0,0.56,0.01,0.96,0.04,1.21c-0.81,0.31-1.99,0.46-3.55,0.46c-0.03-1.06-0.2-1.81-0.5-2.26
		c-0.31-0.44-0.74-0.67-1.3-0.67c-0.42,0-0.86,0.24-1.34,0.73c-0.47,0.49-0.86,1.14-1.17,1.94c-0.31,0.81-0.46,1.64-0.46,2.51v2.05
		c0,1.23,0.13,2.17,0.4,2.84c0.26,0.67,0.69,1.15,1.27,1.44c0.58,0.29,1.42,0.48,2.51,0.56c0.19,0.56,0.29,1.42,0.29,2.59
		c-1.48-0.08-3.65-0.13-6.52-0.13c-3.23,0-5.61,0.04-7.15,0.13c0-1.11,0.08-1.98,0.25-2.59c0.78-0.06,1.36-0.2,1.75-0.44
		c0.39-0.24,0.67-0.64,0.84-1.21c0.17-0.57,0.25-1.43,0.25-2.57v-5.6c0-0.86-0.07-1.52-0.21-1.96c-0.14-0.44-0.42-0.78-0.84-1
		c-0.42-0.22-1.09-0.36-2.01-0.42c0-1.09,0.17-1.91,0.5-2.47c1.48-0.03,2.91-0.17,4.3-0.44c1.39-0.26,2.44-0.58,3.13-0.94
		c0.81,0.31,1.21,1.07,1.21,2.3c0,0.56-0.06,1.18-0.19,1.86c-0.13,0.68-0.29,1.4-0.48,2.15c0.44-1.36,0.79-2.24,1.04-2.63
		c0.64-1.03,1.41-1.85,2.32-2.47c0.9-0.61,1.89-0.92,2.95-0.92c1.14,0,2.14,0.33,3.01,1C126.43,30.37,126.3,32.01,126.3,33.68z"/>
	<path d="M132.38,45.8c-0.96-1.03-1.44-2.73-1.44-5.1v-9.28c-0.81-0.33-1.82-0.52-3.05-0.54c0-1.03,0.15-1.91,0.46-2.63h2.59v-5.14
		c0.92-0.11,1.85-0.36,2.78-0.75c0.93-0.39,1.69-0.82,2.28-1.3c0.42,0.17,0.7,0.42,0.84,0.75c0.14,0.33,0.21,0.95,0.21,1.84v4.6
		h5.14c0,0.89-0.14,1.78-0.42,2.67c-1.87,0.06-3.44,0.28-4.72,0.67v8.44c0,1.64,0.17,2.77,0.5,3.38c0.33,0.61,0.89,0.92,1.67,0.92
		c0.92,0,1.77-0.24,2.55-0.71c0.36,0.5,0.57,1.2,0.63,2.09c-0.56,0.47-1.36,0.86-2.4,1.17c-1.04,0.31-2.1,0.46-3.15,0.46
		C134.83,47.34,133.34,46.83,132.38,45.8z"/>
	<path d="M191.11,47.09c-1.17-0.08-3.43-0.13-6.77-0.13c-1.53,0-3.47,0.04-5.81,0.13c0-0.81,0.1-1.67,0.29-2.59
		c1.03-0.11,1.73-0.34,2.09-0.69c0.36-0.35,0.54-1.01,0.54-1.99c0-0.31-0.06-1.1-0.17-2.38l-1.34-12.79l-8.19,20.35
		c-0.56,0.22-1.39,0.33-2.51,0.33l-9.23-20.6l-1.13,11.24c-0.11,0.97-0.17,1.88-0.17,2.72c0,1.39,0.21,2.35,0.63,2.88
		c0.42,0.53,1.13,0.84,2.13,0.92c0.17,0.64,0.25,1.5,0.25,2.59c-1.03-0.08-2.54-0.13-4.51-0.13c-1.28,0-2.88,0.04-4.81,0.13
		c0-0.97,0.1-1.84,0.29-2.59c0.75-0.06,1.35-0.27,1.8-0.65c0.45-0.38,0.8-1.02,1.07-1.94c0.26-0.92,0.48-2.26,0.65-4.01l1.09-12.24
		c0.06-0.72,0.08-1.23,0.08-1.5c0-1.11-0.21-1.89-0.63-2.32c-0.42-0.43-1.13-0.65-2.13-0.65c-0.2-0.61-0.29-1.48-0.29-2.59
		c1.09,0.08,2.65,0.13,4.68,0.13c2.06,0,3.58-0.04,4.55-0.13l8.86,20.31l7.65-20.31c1.25,0.08,2.85,0.13,4.81,0.13
		c1.84,0,3.36-0.04,4.55-0.13c0,1.06-0.1,1.92-0.29,2.59c-1,0-1.73,0.24-2.17,0.71c-0.45,0.47-0.67,1.31-0.67,2.51
		c0,0.25,0.03,0.71,0.08,1.38l1.34,13.16c0.17,1.56,0.36,2.71,0.56,3.45c0.21,0.74,0.5,1.25,0.88,1.53
		c0.38,0.28,0.94,0.46,1.69,0.54C191.02,45.1,191.11,45.98,191.11,47.09z"/>
	<path d="M210.73,43.08c0.21,0.42,0.33,0.85,0.36,1.3c-1.06,1-2.26,1.75-3.59,2.24c-1.34,0.49-2.88,0.73-4.64,0.73
		c-3.4,0-5.94-0.91-7.63-2.72c-1.69-1.81-2.53-4.18-2.53-7.1c0-1.98,0.4-3.73,1.21-5.24c0.81-1.52,1.95-2.7,3.43-3.55
		c1.48-0.85,3.19-1.27,5.14-1.27c2.87,0,5.02,0.8,6.46,2.4c1.43,1.6,2.21,3.78,2.32,6.54c-0.17,0.81-0.52,1.48-1.04,2.01
		c-4.79,0-8.51,0.07-11.16,0.21c0.25,1.73,0.84,3.09,1.75,4.07c0.92,0.99,2.23,1.48,3.93,1.48c0.98,0,1.94-0.17,2.88-0.52
		c0.95-0.35,1.74-0.83,2.38-1.44C210.27,42.37,210.52,42.66,210.73,43.08z M199.9,31.53c-0.63,0.99-0.97,2.46-1.02,4.41h6.64
		c0-1.87-0.27-3.31-0.81-4.35c-0.54-1.03-1.33-1.55-2.36-1.55C201.35,30.04,200.53,30.54,199.9,31.53z"/>
	<path d="M251.99,47.09c-0.95-0.08-2.72-0.13-5.31-0.13c-2.48,0-4.46,0.04-5.93,0.13c0-1.03,0.1-1.89,0.29-2.59
		c0.61-0.06,1.09-0.21,1.44-0.46c0.35-0.25,0.6-0.7,0.75-1.34c0.15-0.64,0.23-1.56,0.23-2.76V36.1c0-1.7-0.25-2.89-0.75-3.57
		c-0.5-0.68-1.23-1.02-2.17-1.02c-1.23,0-2.22,0.58-2.99,1.73c-0.77,1.16-1.15,2.81-1.15,4.95v2.51c0,1.45,0.17,2.43,0.5,2.95
		c0.33,0.52,0.99,0.8,1.96,0.86c0.22,0.56,0.33,1.42,0.33,2.59c-0.92-0.08-2.84-0.13-5.77-0.13c-2.9,0-4.85,0.04-5.85,0.13
		c0-1.14,0.11-2.01,0.33-2.59c0.7-0.06,1.21-0.2,1.55-0.44c0.33-0.24,0.57-0.68,0.71-1.34c0.14-0.65,0.21-1.65,0.21-2.99v-3.97
		c0-1.59-0.26-2.71-0.77-3.36c-0.52-0.65-1.29-0.98-2.32-0.98c-0.72,0-1.39,0.27-2.01,0.81c-0.61,0.54-1.1,1.32-1.46,2.32
		c-0.36,1-0.54,2.19-0.54,3.55v2.59c0,1,0.07,1.77,0.21,2.3c0.14,0.53,0.38,0.9,0.71,1.11c0.33,0.21,0.84,0.34,1.5,0.4
		c0.22,0.64,0.33,1.5,0.33,2.59c-0.89-0.08-2.91-0.13-6.06-0.13c-3.06,0-5.01,0.04-5.85,0.13c0-1.09,0.11-1.95,0.33-2.59
		c0.78-0.06,1.36-0.19,1.73-0.4c0.38-0.21,0.64-0.56,0.79-1.04c0.15-0.49,0.23-1.22,0.23-2.19v-5.85c0-1-0.06-1.75-0.19-2.24
		c-0.13-0.49-0.4-0.84-0.84-1.07c-0.43-0.22-1.11-0.36-2.03-0.42c0-1,0.17-1.82,0.5-2.47c1.28,0,2.65-0.14,4.12-0.42
		c1.46-0.28,2.54-0.6,3.24-0.96c0.36,0.11,0.65,0.36,0.88,0.73c0.22,0.38,0.33,0.87,0.33,1.48c0,0.5-0.13,1.36-0.38,2.59
		c0.47-1.09,0.88-1.8,1.21-2.13c0.64-0.75,1.46-1.38,2.47-1.88c1-0.5,2.1-0.75,3.3-0.75c1.34,0,2.52,0.28,3.55,0.84
		c1.03,0.56,1.8,1.39,2.3,2.51c0.25,0.45,0.39,0.89,0.42,1.34c0.39-0.84,0.82-1.52,1.3-2.05c0.61-0.7,1.39-1.27,2.34-1.71
		c0.95-0.44,1.99-0.67,3.13-0.67c2.12,0,3.75,0.56,4.91,1.69c1.16,1.13,1.73,2.93,1.73,5.41v4.89c0,1.39,0.06,2.41,0.17,3.05
		c0.11,0.64,0.31,1.07,0.6,1.3c0.29,0.22,0.75,0.36,1.36,0.42C251.88,45.17,251.99,46.03,251.99,47.09z"/>
	<path d="M256.77,44.73c-1.82-1.74-2.74-4.12-2.74-7.12c0-2.09,0.46-3.9,1.38-5.43c0.92-1.53,2.19-2.7,3.8-3.51
		c1.62-0.81,3.44-1.21,5.47-1.21c3.37,0,5.96,0.89,7.77,2.67c1.81,1.78,2.72,4.15,2.72,7.1c0,2.03-0.44,3.82-1.32,5.35
		c-0.88,1.53-2.12,2.71-3.74,3.53c-1.62,0.82-3.5,1.23-5.64,1.23C261.16,47.34,258.59,46.47,256.77,44.73z M267.91,42.87
		c0.67-1.2,1-2.76,1-4.68c0-1.7-0.22-3.17-0.65-4.41c-0.43-1.24-1.01-2.18-1.73-2.82c-0.72-0.64-1.52-0.96-2.38-0.96
		c-1.23,0-2.17,0.59-2.82,1.76c-0.65,1.17-0.98,2.7-0.98,4.6c0,2.51,0.42,4.52,1.25,6.04c0.84,1.52,1.99,2.28,3.47,2.28
		C266.29,44.67,267.24,44.07,267.91,42.87z"/>
	<path d="M295.23,33.68c0,0.56,0.01,0.96,0.04,1.21c-0.81,0.31-1.99,0.46-3.55,0.46c-0.03-1.06-0.2-1.81-0.5-2.26
		c-0.31-0.44-0.74-0.67-1.3-0.67c-0.42,0-0.86,0.24-1.34,0.73c-0.47,0.49-0.86,1.14-1.17,1.94c-0.31,0.81-0.46,1.64-0.46,2.51v2.05
		c0,1.23,0.13,2.17,0.4,2.84c0.26,0.67,0.69,1.15,1.27,1.44c0.58,0.29,1.42,0.48,2.51,0.56c0.19,0.56,0.29,1.42,0.29,2.59
		c-1.48-0.08-3.65-0.13-6.52-0.13c-3.23,0-5.61,0.04-7.15,0.13c0-1.11,0.08-1.98,0.25-2.59c0.78-0.06,1.36-0.2,1.75-0.44
		c0.39-0.24,0.67-0.64,0.84-1.21c0.17-0.57,0.25-1.43,0.25-2.57v-5.6c0-0.86-0.07-1.52-0.21-1.96c-0.14-0.44-0.42-0.78-0.84-1
		c-0.42-0.22-1.09-0.36-2.01-0.42c0-1.09,0.17-1.91,0.5-2.47c1.48-0.03,2.91-0.17,4.3-0.44c1.39-0.26,2.44-0.58,3.13-0.94
		c0.81,0.31,1.21,1.07,1.21,2.3c0,0.56-0.06,1.18-0.19,1.86c-0.13,0.68-0.29,1.4-0.48,2.15c0.45-1.36,0.79-2.24,1.05-2.63
		c0.64-1.03,1.41-1.85,2.32-2.47c0.9-0.61,1.89-0.92,2.95-0.92c1.14,0,2.14,0.33,3.01,1C295.36,30.37,295.23,32.01,295.23,33.68z"/>
	<path d="M298.03,44.5c1.11-0.06,1.86-0.33,2.24-0.81c0.38-0.49,0.56-1.43,0.56-2.82v-6.64c0-1.03-0.2-1.76-0.61-2.19
		c-0.4-0.43-1.23-0.68-2.49-0.73c0-1.06,0.15-1.88,0.46-2.47c1.36,0,2.8-0.15,4.3-0.44c1.5-0.29,2.58-0.61,3.22-0.94
		c0.81,0.33,1.21,1.07,1.21,2.21v11.2c0,1.39,0.18,2.33,0.54,2.82c0.36,0.49,1.06,0.76,2.09,0.81c0.17,0.53,0.25,1.39,0.25,2.59
		c-1.2-0.08-3.2-0.13-6.02-0.13c-2.87,0-4.89,0.04-6.06,0.13C297.74,45.98,297.84,45.12,298.03,44.5z M300.87,23.42
		c-0.64-0.54-0.96-1.26-0.96-2.15c0-0.97,0.34-1.75,1.02-2.32c0.68-0.57,1.55-0.86,2.61-0.86c1.14,0,2.03,0.28,2.65,0.84
		c0.63,0.56,0.94,1.32,0.94,2.3c0,0.86-0.34,1.58-1.02,2.15c-0.68,0.57-1.59,0.86-2.74,0.86C302.35,24.24,301.51,23.96,300.87,23.42
		z"/>
	<path d="M333.05,44.08c0,0.67-0.13,1.3-0.38,1.88c-2.28,0.08-4.36,0.54-6.23,1.38c-0.47-0.2-0.81-0.48-1.02-0.86
		c-0.21-0.38-0.31-0.9-0.31-1.57c0-0.28,0.06-0.81,0.17-1.59c-0.45,1.03-1.03,1.84-1.75,2.42c-1.17,1-2.8,1.5-4.89,1.5
		c-1.89,0-3.36-0.4-4.39-1.21c-1.03-0.81-1.55-1.96-1.55-3.47c0-2.37,1.11-4.06,3.34-5.08c2.23-1.02,5.04-1.76,8.44-2.24
		c0-1.23-0.06-2.15-0.19-2.78c-0.13-0.63-0.37-1.15-0.73-1.57c-0.61-0.7-1.39-1.04-2.34-1.04c-1.06,0-1.85,0.45-2.36,1.34
		c-0.52,0.89-0.83,2.01-0.94,3.34c-0.81,0-1.48-0.03-2.03-0.08c-0.54-0.06-1.04-0.17-1.48-0.33c0.06-0.72,0.08-1.31,0.08-1.75
		c0-1.17-0.11-2.26-0.33-3.26c1.2-0.53,2.55-0.95,4.07-1.25c1.52-0.31,2.96-0.46,4.32-0.46c2.84,0,4.9,0.64,6.18,1.92
		c0.61,0.61,1.07,1.46,1.38,2.53c0.31,1.07,0.46,2.54,0.46,4.41v3.59c0,0.95,0.06,1.65,0.17,2.11c0.11,0.46,0.33,0.79,0.67,0.98
		c0.33,0.2,0.86,0.31,1.59,0.33C333.03,43.46,333.05,43.72,333.05,44.08z M324.48,37.52c-1.89,0.33-3.32,0.78-4.26,1.34
		c-0.95,0.56-1.42,1.42-1.42,2.59c0,0.75,0.19,1.32,0.56,1.69c0.38,0.38,0.84,0.56,1.4,0.56c0.61,0,1.2-0.2,1.78-0.59
		c0.57-0.39,1.04-0.97,1.4-1.73c0.36-0.77,0.54-1.69,0.54-2.78V37.52z"/>
	<path d="M335.55,44.5c1.11-0.06,1.86-0.33,2.23-0.81c0.38-0.49,0.56-1.43,0.56-2.82V23.53c0-0.92-0.22-1.58-0.65-1.98
		c-0.43-0.4-1.25-0.63-2.44-0.69c0-1.06,0.15-1.88,0.46-2.47c1.37,0,2.8-0.15,4.3-0.44c1.5-0.29,2.56-0.61,3.18-0.94
		c0.84,0.33,1.25,1.07,1.25,2.21v21.64c0,1.39,0.18,2.33,0.54,2.82c0.36,0.49,1.06,0.76,2.09,0.81c0.17,0.53,0.25,1.39,0.25,2.59
		c-1.2-0.08-3.2-0.13-6.02-0.13c-2.87,0-4.89,0.04-6.06,0.13C335.26,45.98,335.36,45.12,335.55,44.5z"/>
	<path d="M364.95,45.48c-2.1-1.24-3.74-2.97-4.91-5.18c-1.17-2.21-1.75-4.76-1.75-7.63c0-3.04,0.65-5.63,1.96-7.79
		c1.31-2.16,3.04-3.79,5.2-4.89c2.16-1.1,4.5-1.65,7.04-1.65c3.09,0,6.16,0.72,9.19,2.17c-0.31,1.76-0.46,3.91-0.46,6.48
		c-0.64,0.33-1.73,0.5-3.26,0.5c-0.06-2.4-0.53-4.09-1.42-5.1c-0.89-1-2.17-1.5-3.84-1.5c-2.62,0-4.55,1.02-5.81,3.05
		c-1.25,2.03-1.88,4.58-1.88,7.65c0,3.68,0.8,6.67,2.4,8.98c1.6,2.31,3.91,3.47,6.92,3.47c1.11,0,2.27-0.18,3.47-0.54
		c1.2-0.36,2.37-0.88,3.51-1.55c0.22,0.2,0.42,0.47,0.61,0.81c0.18,0.35,0.3,0.69,0.36,1.02c-1.39,1.14-2.9,2.02-4.53,2.63
		c-1.63,0.61-3.49,0.92-5.58,0.92C369.45,47.34,367.05,46.72,364.95,45.48z"/>
	<path d="M385.07,44.5c1.11-0.06,1.86-0.33,2.23-0.81c0.38-0.49,0.56-1.43,0.56-2.82V23.53c0-0.92-0.22-1.58-0.65-1.98
		c-0.43-0.4-1.25-0.63-2.44-0.69c0-1.06,0.15-1.88,0.46-2.47c1.37,0,2.8-0.15,4.3-0.44c1.5-0.29,2.56-0.61,3.18-0.94
		c0.84,0.33,1.25,1.07,1.25,2.21v21.64c0,1.39,0.18,2.33,0.54,2.82c0.36,0.49,1.06,0.76,2.09,0.81c0.17,0.53,0.25,1.39,0.25,2.59
		c-1.2-0.08-3.2-0.13-6.02-0.13c-2.87,0-4.89,0.04-6.06,0.13C384.77,45.98,384.87,45.12,385.07,44.5z"/>
	<path d="M402.13,44.73c-1.82-1.74-2.74-4.12-2.74-7.12c0-2.09,0.46-3.9,1.38-5.43c0.92-1.53,2.19-2.7,3.8-3.51
		c1.62-0.81,3.44-1.21,5.47-1.21c3.37,0,5.96,0.89,7.77,2.67c1.81,1.78,2.72,4.15,2.72,7.1c0,2.03-0.44,3.82-1.32,5.35
		c-0.88,1.53-2.12,2.71-3.74,3.53c-1.62,0.82-3.5,1.23-5.64,1.23C406.53,47.34,403.96,46.47,402.13,44.73z M413.27,42.87
		c0.67-1.2,1-2.76,1-4.68c0-1.7-0.22-3.17-0.65-4.41c-0.43-1.24-1.01-2.18-1.73-2.82c-0.72-0.64-1.52-0.96-2.38-0.96
		c-1.23,0-2.17,0.59-2.82,1.76c-0.65,1.17-0.98,2.7-0.98,4.6c0,2.51,0.42,4.52,1.25,6.04c0.84,1.52,1.99,2.28,3.47,2.28
		C411.65,44.67,412.6,44.07,413.27,42.87z"/>
	<path d="M426.16,44.82c-1.85-1.69-2.78-4.13-2.78-7.33c0-1.73,0.38-3.36,1.13-4.89c0.75-1.53,1.86-2.77,3.32-3.72
		c1.46-0.95,3.22-1.42,5.29-1.42c1.5,0,2.82,0.15,3.95,0.44c1.13,0.29,2.15,0.73,3.07,1.32c-0.28,1.31-0.42,3.04-0.42,5.18
		c-0.81,0.36-1.91,0.54-3.3,0.54c-0.08-1.59-0.42-2.81-1-3.66c-0.59-0.85-1.35-1.27-2.3-1.27c-1.14,0-2.03,0.62-2.67,1.86
		c-0.64,1.24-0.96,2.92-0.96,5.04c0,1.98,0.48,3.68,1.44,5.12c0.96,1.44,2.36,2.15,4.2,2.15c1.78,0,3.25-0.54,4.39-1.63
		c0.59,0.53,0.92,1.2,1,2.01c-0.75,0.89-1.73,1.58-2.95,2.07c-1.21,0.49-2.6,0.73-4.16,0.73C430.43,47.34,428.01,46.5,426.16,44.82z
		"/>
	<path d="M463.85,43.9c0.46,0.29,1.08,0.47,1.86,0.52c0,1.03-0.14,1.88-0.42,2.55c-2.92,0-5.18,0.13-6.77,0.38
		c-0.78-1.17-1.85-2.63-3.2-4.37c-1.35-1.74-2.71-3.38-4.07-4.91v2.8c0,1.34,0.15,2.26,0.46,2.78c0.31,0.52,0.86,0.8,1.67,0.86
		c0.19,0.53,0.29,1.39,0.29,2.59c-1.25-0.08-3.15-0.13-5.68-0.13c-2.79,0-4.76,0.04-5.93,0.13c0-1.11,0.1-1.98,0.29-2.59
		c1.11-0.06,1.86-0.33,2.23-0.81c0.38-0.49,0.56-1.43,0.56-2.82V23.78c0-1.03-0.2-1.76-0.61-2.19c-0.4-0.43-1.23-0.68-2.49-0.73
		c0-1.06,0.15-1.88,0.46-2.47c1.37,0,2.8-0.15,4.3-0.44c1.5-0.29,2.56-0.61,3.18-0.94c0.84,0.33,1.25,1.07,1.25,2.21v16.84
		l2.88-2.55c1.36-1.23,2.05-2.06,2.05-2.51c0-0.22-0.09-0.39-0.27-0.5c-0.18-0.11-0.48-0.18-0.9-0.21
		c-0.28-0.84-0.42-1.69-0.42-2.55c1.84,0.06,3.8,0.08,5.89,0.08c0.95,0,2.26-0.03,3.93-0.08c0,1.03-0.14,1.88-0.42,2.55
		c-1.06,0.08-1.96,0.3-2.7,0.65c-0.74,0.35-1.61,0.98-2.61,1.9l-2.59,2.38c1.84,1.75,3.87,4.08,6.1,6.98
		C462.84,43.04,463.39,43.6,463.85,43.9z"/>
</g>
</svg>
