<?xml version="1.0" encoding="utf-8"?>
<!-- Generator: Adobe Illustrator 23.0.1, SVG Export Plug-In . SVG Version: 6.00 Build 0)  -->
<svg version="1.1" id="Layer_1" xmlns="http://www.w3.org/2000/svg" xmlns:xlink="http://www.w3.org/1999/xlink" x="0px" y="0px"
	 viewBox="0 0 588 283" style="enable-background:new 0 0 588 283;" xml:space="preserve">
<style type="text/css">
	.st0{fill:#BCBCBC;}
	.st1{fill:#D1D1D1;}
	.st2{fill:#FFFFFF;}
	.st3{fill:#FFFFFF;stroke:#E5E5E5;stroke-width:2;stroke-miterlimit:10;}
</style>
<polygon class="st0" points="588,283 -0.87,284 -0.87,-5.2 588,-5.2 "/>
<polygon class="st1" points="588,283 -1,284 -1,257 562,256.5 "/>
<rect class="st2" width="562.5" height="256"/>
<rect x="19.28" y="18.5" class="st3" width="522.95" height="220"/>
<g>
	<path d="M113.43,147.63c-2.49,6.93-7.25,10.39-14.3,10.39c-7.22,0-13.17-2.72-17.85-8.17c-4.85-5.62-7.28-12.82-7.28-21.58
		c0-9.24,2.6-16.64,7.81-22.2c5.03-5.39,11.51-8.08,19.45-8.08c5.39,0,9.9,1.17,13.54,3.51c3.64,2.34,6.5,6.02,8.57,11.06
		l-10.75,2.49c-3.14-5.03-7.1-7.55-11.9-7.55c-4.38,0-8.02,1.86-10.92,5.59c-3.02,3.79-4.53,8.85-4.53,15.19
		c0,5.98,1.36,10.83,4.09,14.56c2.66,3.67,6.22,5.51,10.66,5.51c3.79,0,6.9-1.21,9.32-3.64c2.49-2.49,3.73-5.89,3.73-10.21v-0.36
		l-12.97-0.27v-6.75h23v29.66h-8.53L113.43,147.63z"/>
	<path d="M160.41,99.14h13.14l18.92,57.63h-11.1l-4-12.43h-21.4l-4.08,12.43h-11.1L160.41,99.14z M158.63,136.44h16.16l-7.99-24.78
		L158.63,136.44z"/>
	<path d="M222.03,147.63h23.71v9.15h-34.19V99.14h10.48V147.63z"/>
	<path d="M274.78,147.63h23.71v9.15H264.3V99.14h10.48V147.63z"/>
	<path d="M316.96,99.14h37.12v9.06h-26.64v15.19h24.95v9.06h-24.95v15.19h26.64v9.15h-37.12V99.14z"/>
	<path d="M420.78,116.81c0,4.08-1.15,7.58-3.46,10.48c-2.31,2.9-5.62,4.91-9.95,6.04l15.45,23.44h-13.68l-12.7-22.47h-7.99v22.47
		h-10.48V99.14h21.31c6.81,0,12.11,1.63,15.9,4.88C418.91,107.16,420.78,111.42,420.78,116.81z M398.31,127.29
		c3.85,0,6.75-0.87,8.7-2.62c1.95-1.75,2.93-4.05,2.93-6.93c0-2.87-0.89-5.18-2.66-6.93c-1.78-1.75-4.44-2.62-7.99-2.62h-10.83
		v19.09H398.31z"/>
	<path d="M449.64,99.14l12.7,23l13.32-23H488l-20.51,33.83v23.8h-10.48v-23.8l-19.8-33.83H449.64z"/>
</g>
<polygon class="st2" points="562.5,0 588,23.29 588,0 "/>
<polygon class="st2" points="0,256 21.12,283 0,283 "/>
</svg>
