<?xml version="1.0" encoding="utf-8"?>
<!-- Generator: Adobe Illustrator 23.0.1, SVG Export Plug-In . SVG Version: 6.00 Build 0)  -->
<svg version="1.1" id="Layer_1" xmlns="http://www.w3.org/2000/svg" xmlns:xlink="http://www.w3.org/1999/xlink" x="0px" y="0px"
	 viewBox="0 0 320.26 322.02" style="enable-background:new 0 0 320.26 322.02;" xml:space="preserve">
<g>
	<path d="M83.28,39.13c0.38,0.79,0.57,2.01,0.57,3.64v39.24c0,3.04,0.16,5.24,0.48,6.58c0.32,1.35,0.94,2.27,1.84,2.77
		c0.91,0.5,2.41,0.83,4.52,1.01c0.35,1.64,0.53,3.45,0.53,5.44c-3.86-0.17-8.72-0.26-14.57-0.26c-5.33,0-9.92,0.09-13.78,0.26
		c0-2.4,0.2-4.21,0.61-5.44c2.22-0.17,3.85-0.51,4.87-1.01c1.02-0.5,1.72-1.42,2.11-2.77c0.38-1.34,0.57-3.54,0.57-6.58V56.21
		c0-2.63-0.18-4.52-0.53-5.66c-0.35-1.14-1.11-1.92-2.28-2.33c-1.17-0.41-3.13-0.61-5.88-0.61c0-2.34,0.2-4.21,0.61-5.62
		c3.86-0.29,7.18-0.79,9.96-1.49c2.78-0.7,5.54-1.7,8.3-2.98C82.21,37.8,82.9,38.34,83.28,39.13z"/>
	<path d="M118.39,39.13c0.38,0.79,0.57,2.01,0.57,3.64v39.24c0,3.04,0.16,5.24,0.48,6.58c0.32,1.35,0.94,2.27,1.84,2.77
		c0.91,0.5,2.41,0.83,4.52,1.01c0.35,1.64,0.53,3.45,0.53,5.44c-3.86-0.17-8.72-0.26-14.57-0.26c-5.33,0-9.92,0.09-13.78,0.26
		c0-2.4,0.2-4.21,0.61-5.44c2.22-0.17,3.85-0.51,4.87-1.01c1.02-0.5,1.72-1.42,2.11-2.77c0.38-1.34,0.57-3.54,0.57-6.58V56.21
		c0-2.63-0.18-4.52-0.53-5.66c-0.35-1.14-1.11-1.92-2.28-2.33c-1.17-0.41-3.13-0.61-5.88-0.61c0-2.34,0.2-4.21,0.61-5.62
		c3.86-0.29,7.18-0.79,9.96-1.49c2.78-0.7,5.54-1.7,8.3-2.98C117.32,37.8,118.01,38.34,118.39,39.13z"/>
	<path d="M166.37,67.44c2.87,2.69,4.3,6.44,4.3,11.24c0,6.14-2.09,10.96-6.28,14.44c-4.18,3.48-10.02,5.22-17.51,5.22
		c-3.39,0-6.29-0.39-8.69-1.19c-2.4-0.79-4.27-1.77-5.62-2.94c0.12-1.76,0.85-3.31,2.19-4.65c1.11,0.82,2.52,1.49,4.21,2.02
		c1.7,0.53,3.54,0.79,5.53,0.79c3.86,0,6.98-1.05,9.35-3.16c2.37-2.11,3.56-4.97,3.56-8.6c0-2.87-0.85-5.18-2.55-6.93
		c-1.7-1.76-3.86-2.63-6.5-2.63c-1.17,0-2.19,0.18-3.07,0.53c-0.59-0.58-1.05-1.35-1.4-2.28c-0.35-0.94-0.53-1.81-0.53-2.63
		c4.04-4.92,8.4-10.77,13.08-17.56h-8.6c-1.87,0-3.29,0.16-4.26,0.48c-0.97,0.32-1.74,0.95-2.33,1.89c-0.59,0.94-1.2,2.46-1.84,4.57
		c-2.69,0-4.68-0.41-5.97-1.23c0.47-2.51,0.76-5.05,0.88-7.59c0.12-2.55,0.18-5.63,0.18-9.26c7.02,0.18,12.61,0.26,16.77,0.26
		c4.8,0,10.27-0.09,16.42-0.26c1.17,1.4,1.7,3.25,1.58,5.53c-4.27,5.39-9.13,11.91-14.57,19.58
		C159.61,63.29,163.5,64.75,166.37,67.44z"/>
	<path d="M257.92,94.92c-1.17,1-2.85,1.81-5.05,2.46c-2.19,0.64-4.4,0.97-6.63,0.97c-4.16,0-7.24-1.1-9.26-3.29
		c-2.02-2.19-3.03-5.75-3.03-10.67V64.9c-1.81-0.7-3.98-1.08-6.5-1.14c0-1.17,0.07-2.16,0.22-2.98c0.15-0.82,0.42-1.67,0.83-2.55
		h5.44v-7.55c0-2.75-0.89-4.84-2.68-6.28c-1.79-1.43-4.05-2.15-6.8-2.15c-3.45,0-6.07,0.92-7.86,2.77
		c-1.79,1.84-2.68,4.87-2.68,9.09v4.13h9.66c0,2.75-0.29,4.68-0.88,5.79c-3.16,0-6.09,0.38-8.78,1.14v17.03
		c0,2.57,0.28,4.56,0.83,5.97c0.56,1.4,1.45,2.41,2.68,3.03c1.23,0.61,2.98,1.01,5.27,1.18c0.41,1.17,0.61,2.98,0.61,5.44
		c-3.1-0.17-7.67-0.26-13.69-0.26c-6.79,0-11.79,0.09-15.01,0.26c0-2.34,0.18-4.15,0.53-5.44c1.64-0.12,2.87-0.42,3.69-0.92
		c0.82-0.5,1.4-1.35,1.76-2.55c0.35-1.2,0.53-3,0.53-5.4v-18.7c-2.4-0.64-4.65-0.97-6.76-0.97c0-2.57,0.41-4.45,1.23-5.62h5.53V57
		c0-4.51,1.11-8.29,3.34-11.37c2.22-3.07,5.22-5.37,9-6.89c3.77-1.52,7.97-2.28,12.6-2.28c2.11,0,4.21,0.25,6.32,0.75
		c2.11,0.5,4.01,1.16,5.71,1.98c2.57-0.47,4.56-1.11,5.97-1.93c1.76,0.7,2.63,2.25,2.63,4.65v16.33h10.71
		c0,2.05-0.26,3.92-0.79,5.62c-3.92,0.12-7.23,0.59-9.92,1.4v17.73c0,3.45,0.35,5.82,1.05,7.11c0.7,1.29,1.87,1.93,3.51,1.93
		c1.93,0,3.72-0.5,5.35-1.49C257.36,91.58,257.8,93.05,257.92,94.92z"/>
</g>
<rect x="24.44" y="131.34" width="271.38" height="5.54"/>
<g>
	<path d="M88.71,207.78c1.07,0.59,2.25,1.29,3.56,2.12c1.91,1.22,3.56,2.13,4.96,2.74c1.39,0.61,3,0.91,4.83,0.91
		c0.7,0,1.24-0.02,1.63-0.06c0,0.91-0.13,1.78-0.39,2.61c-3,0.91-5.7,1.91-8.09,3c-1.74-0.44-3.16-1.1-4.27-1.99
		c-1.11-0.89-2.32-2.1-3.62-3.62c-1.52-1.74-2.96-3.08-4.3-4.01c-1.35-0.94-3.17-1.53-5.48-1.79c-4.22,0-7.96-0.99-11.22-2.97
		c-3.26-1.98-5.79-4.7-7.6-8.15C56.9,193.1,56,189.22,56,184.91c0-4.35,0.95-8.23,2.84-11.64c1.89-3.41,4.48-6.08,7.76-7.99
		c3.28-1.91,6.92-2.87,10.93-2.87c4.13,0,7.84,0.95,11.12,2.84c3.28,1.89,5.85,4.54,7.7,7.96c1.85,3.41,2.77,7.32,2.77,11.71
		c0,5-1.26,9.42-3.78,13.27c-2.52,3.85-5.89,6.56-10.11,8.12C86.48,206.7,87.65,207.19,88.71,207.78z M64.64,193.65
		c1.28,3.26,3.14,5.88,5.58,7.86c2.43,1.98,5.3,2.97,8.61,2.97c2.74,0,5.14-0.78,7.21-2.35c2.06-1.57,3.64-3.71,4.73-6.42
		c1.09-2.72,1.63-5.75,1.63-9.1c0-3.87-0.71-7.41-2.12-10.63s-3.36-5.76-5.84-7.63c-2.48-1.87-5.24-2.8-8.28-2.8
		c-2.57,0-4.87,0.74-6.91,2.22c-2.04,1.48-3.64,3.54-4.79,6.2c-1.15,2.65-1.73,5.72-1.73,9.2
		C62.72,186.89,63.36,190.39,64.64,193.65z"/>
	<path d="M132.28,201.68c0.5,0.65,1.6,0.98,3.29,0.98c0,1.26-0.13,2.26-0.39,3c-1.13,0.09-2.41,0.32-3.85,0.68
		c-1.43,0.37-2.63,0.82-3.59,1.34c-0.57-0.26-0.98-0.62-1.24-1.08c-0.26-0.46-0.39-1.36-0.39-2.71c0-0.96,0.07-1.87,0.2-2.74
		c-0.39,0.91-1.09,1.87-2.09,2.87c-1.17,1.17-2.39,2.02-3.65,2.54c-1.26,0.52-2.76,0.78-4.5,0.78c-3.09,0-5.41-0.89-6.98-2.67
		s-2.35-4.76-2.35-8.94v-9.85c0-1.17-0.09-2.06-0.26-2.67c-0.17-0.61-0.57-1.08-1.17-1.4s-1.57-0.51-2.87-0.55
		c0-1,0.15-1.8,0.46-2.41c1.35-0.09,2.82-0.35,4.4-0.78c1.59-0.43,2.88-0.91,3.88-1.43c0.96,0.3,1.43,1.26,1.43,2.87v14.81
		c0,3.04,0.41,5.32,1.24,6.82c0.83,1.5,2.22,2.25,4.17,2.25c2.26,0,4.1-0.95,5.51-2.84c1.41-1.89,2.12-4.66,2.12-8.32v-6.65
		c0-1.13-0.12-2.01-0.36-2.64c-0.24-0.63-0.71-1.11-1.4-1.44c-0.7-0.33-1.74-0.51-3.13-0.55c0-0.61,0.02-1.08,0.07-1.4
		c0.04-0.33,0.17-0.66,0.39-1.01c1.65-0.09,3.29-0.3,4.92-0.65c1.63-0.35,2.95-0.76,3.95-1.24c0.96,0.3,1.43,1.26,1.43,2.87v18.72
		C131.53,199.87,131.78,201.02,132.28,201.68z"/>
	<path d="M165.68,201.16c0.33,0.39,0.51,0.76,0.55,1.11c-1.48,1.91-3.16,3.29-5.05,4.14c-1.89,0.85-4.08,1.27-6.56,1.27
		c-3,0-5.53-0.68-7.6-2.05c-2.07-1.37-3.62-3.23-4.66-5.58c-1.04-2.35-1.57-4.98-1.57-7.89c0-2.83,0.55-5.41,1.66-7.76
		c1.11-2.35,2.68-4.23,4.73-5.64c2.04-1.41,4.41-2.12,7.11-2.12c3.96,0,6.9,1.23,8.84,3.68c1.93,2.46,3.05,5.73,3.36,9.82
		c-0.17,0.87-0.5,1.61-0.98,2.22c-7.65,0-13.74,0.11-18.26,0.33c0.22,3.35,1.05,6.08,2.51,8.19c1.46,2.11,3.77,3.16,6.95,3.16
		c1.48,0,2.91-0.33,4.3-0.98c1.39-0.65,2.61-1.59,3.65-2.8C165.01,200.46,165.35,200.76,165.68,201.16z M149.27,181.98
		c-1.22,1.48-1.91,3.96-2.09,7.44h12.52c0-2.91-0.53-5.25-1.6-7.01c-1.07-1.76-2.53-2.64-4.4-2.64
		C151.97,179.76,150.49,180.5,149.27,181.98z"/>
	<path d="M196.59,201.16c0.33,0.39,0.51,0.76,0.55,1.11c-1.48,1.91-3.16,3.29-5.05,4.14c-1.89,0.85-4.08,1.27-6.56,1.27
		c-3,0-5.53-0.68-7.6-2.05c-2.07-1.37-3.62-3.23-4.66-5.58c-1.04-2.35-1.57-4.98-1.57-7.89c0-2.83,0.55-5.41,1.66-7.76
		c1.11-2.35,2.68-4.23,4.73-5.64c2.04-1.41,4.41-2.12,7.11-2.12c3.96,0,6.9,1.23,8.84,3.68c1.93,2.46,3.05,5.73,3.36,9.82
		c-0.17,0.87-0.5,1.61-0.98,2.22c-7.65,0-13.74,0.11-18.26,0.33c0.22,3.35,1.05,6.08,2.51,8.19c1.46,2.11,3.77,3.16,6.95,3.16
		c1.48,0,2.91-0.33,4.3-0.98c1.39-0.65,2.61-1.59,3.65-2.8C195.93,200.46,196.27,200.76,196.59,201.16z M180.19,181.98
		c-1.22,1.48-1.91,3.96-2.09,7.44h12.52c0-2.91-0.53-5.25-1.6-7.01c-1.07-1.76-2.53-2.64-4.4-2.64
		C182.88,179.76,181.41,180.5,180.19,181.98z"/>
	<path d="M236.61,207.29c-1.87-0.13-4.24-0.2-7.11-0.2c-1.78,0-3.94,0.04-6.46,0.13c-0.3,0.04-0.74,0.06-1.3,0.06
		c0-1.26,0.11-2.2,0.33-2.8c1.61,0,2.76-0.41,3.46-1.24c0.7-0.83,1.04-2.3,1.04-4.43v-9.92c0-2.87-0.53-4.91-1.6-6.13
		c-1.07-1.22-2.56-1.83-4.47-1.83c-1.22,0-2.39,0.37-3.52,1.11c-1.13,0.74-2.05,1.94-2.77,3.59s-1.08,3.72-1.08,6.2v6.98
		c0,2.17,0.33,3.66,0.98,4.47s1.83,1.21,3.52,1.21c0.22,0.65,0.33,1.59,0.33,2.8c-3.65-0.13-6.24-0.2-7.76-0.2
		c-3.3,0-5.89,0.07-7.76,0.2c0-1.26,0.11-2.2,0.33-2.8c1.7,0,2.87-0.4,3.52-1.21s0.98-2.29,0.98-4.47v-12.92
		c0-1.13-0.12-2.01-0.36-2.64c-0.24-0.63-0.71-1.11-1.4-1.44s-1.74-0.51-3.13-0.55c0-1,0.2-1.8,0.59-2.41
		c1.35-0.09,2.89-0.35,4.63-0.78c1.74-0.43,3.11-0.91,4.11-1.43c0.96,0.3,1.43,1.26,1.43,2.87c0,1.39-0.15,2.67-0.46,3.85
		c0.09-0.13,0.21-0.36,0.36-0.68c0.15-0.33,0.36-0.66,0.62-1.01c0.87-1.22,2.14-2.3,3.82-3.26c1.67-0.96,3.55-1.43,5.64-1.43
		c2.74,0,4.98,0.85,6.72,2.54c1.74,1.7,2.61,4.39,2.61,8.09v11.22c0,2.17,0.3,3.66,0.91,4.47c0.61,0.8,1.59,1.21,2.94,1.21
		C236.5,205.13,236.61,206.07,236.61,207.29z"/>
	<path d="M258.98,186.48c-0.13-1.91-0.87-3.59-2.22-5.02c-1.35-1.43-3.04-2.15-5.09-2.15c-1.35,0-2.42,0.33-3.23,0.98
		s-1.21,1.52-1.21,2.61c0,0.83,0.17,1.51,0.52,2.05c0.35,0.54,1.06,1.12,2.15,1.73c1.09,0.61,2.78,1.37,5.09,2.28
		c2.39,0.91,4.25,1.8,5.58,2.67c1.33,0.87,2.27,1.84,2.84,2.9c0.56,1.07,0.85,2.38,0.85,3.95c0,2.74-1.13,4.96-3.39,6.65
		c-2.26,1.7-5.11,2.54-8.54,2.54c-2.48,0-4.49-0.2-6.03-0.59c-1.54-0.39-3.12-1-4.73-1.83c0.13-1.13,0.2-2.59,0.2-4.37
		c0-1.17-0.04-2.41-0.13-3.72c0.65-0.48,1.78-0.72,3.39-0.72c0.3,2.7,1.14,4.73,2.51,6.1s3.18,2.05,5.45,2.05
		c1.74,0,3.11-0.39,4.11-1.17c1-0.78,1.5-1.78,1.5-3c0-0.78-0.19-1.46-0.55-2.02c-0.37-0.56-1.05-1.13-2.05-1.7
		c-1-0.56-2.48-1.24-4.43-2.02c-2.52-1-4.46-1.91-5.81-2.74c-1.35-0.83-2.33-1.79-2.93-2.9c-0.61-1.11-0.91-2.53-0.91-4.27
		c0-1.74,0.56-3.22,1.7-4.43c1.13-1.22,2.54-2.14,4.24-2.77c1.7-0.63,3.33-0.95,4.89-0.95c1.91,0,3.61,0.18,5.09,0.55
		c1.48,0.37,2.91,0.95,4.3,1.73c-0.09,1.3-0.13,2.33-0.13,3.07c0,1.39,0.09,2.63,0.26,3.72
		C261.41,186.22,260.33,186.48,258.98,186.48z"/>
	<path d="M64.61,276.78c-2-0.67-4.15-1.73-6.46-3.16c0.39-2.43,0.59-5.52,0.59-9.26c1-0.26,2.17-0.39,3.52-0.39
		c0.17,3.48,1.05,6.13,2.64,7.96c1.59,1.83,4.05,2.74,7.4,2.74c2.83,0,4.92-0.62,6.29-1.86c1.37-1.24,2.05-2.88,2.05-4.92
		c0-1.7-0.44-3.13-1.3-4.3c-0.87-1.17-1.94-2.14-3.2-2.9c-1.26-0.76-3.02-1.66-5.28-2.71c-2.61-1.26-4.7-2.39-6.26-3.39
		c-1.57-1-2.9-2.34-4.01-4.01c-1.11-1.67-1.66-3.77-1.66-6.29c0-3.65,1.17-6.52,3.52-8.61s5.54-3.13,9.59-3.13
		c2.13,0,4.17,0.27,6.13,0.82c1.96,0.54,3.54,1.23,4.76,2.05c0,3.87,0.13,6.74,0.39,8.61c-0.96,0.39-2.17,0.59-3.65,0.59
		c-0.61-3.56-1.52-5.99-2.74-7.27c-1.22-1.28-2.87-1.92-4.96-1.92c-2.31,0-4.11,0.57-5.41,1.7c-1.3,1.13-1.96,2.72-1.96,4.76
		c0,1.7,0.45,3.15,1.34,4.37c0.89,1.22,1.98,2.22,3.26,3c1.28,0.78,3.05,1.74,5.32,2.87c2.57,1.22,4.62,2.33,6.16,3.33
		c1.54,1,2.86,2.3,3.95,3.91c1.09,1.61,1.63,3.59,1.63,5.94c0,2.26-0.53,4.34-1.6,6.23s-2.72,3.41-4.96,4.57
		c-2.24,1.15-5.01,1.73-8.32,1.73C68.87,277.8,66.61,277.46,64.61,276.78z"/>
	<path d="M124.68,293.19c-1.65-0.13-4.35-0.2-8.09-0.2c-3.17,0-5.87,0.07-8.09,0.2c0-1.26,0.11-2.2,0.33-2.8
		c1.39-0.09,2.46-0.29,3.2-0.62c0.74-0.33,1.25-0.88,1.53-1.66c0.28-0.78,0.42-1.91,0.42-3.39v-8.81c0-1.87,0.33-4.11,0.98-6.72
		c-0.65,1.83-1.28,3.13-1.89,3.91c-0.91,1.17-2.17,2.16-3.78,2.97c-1.61,0.81-3.26,1.21-4.96,1.21c-2.17,0-4.17-0.53-6-1.6
		c-1.83-1.06-3.28-2.65-4.37-4.76s-1.63-4.66-1.63-7.66c0-2.96,0.67-5.7,2.02-8.22c1.35-2.52,3.23-4.53,5.64-6.03
		c2.41-1.5,5.16-2.25,8.25-2.25c5.61,0,9.91,1.46,12.91,4.37c-0.43,0.7-0.76,1.59-0.98,2.67c-0.22,1.09-0.33,2.57-0.33,4.44v26.48
		c0,2.17,0.32,3.64,0.95,4.4c0.63,0.76,1.82,1.18,3.55,1.27C124.57,291.04,124.68,291.97,124.68,293.19z M110.1,272.15
		c1.11-0.76,2.03-1.98,2.77-3.65c0.74-1.67,1.11-3.84,1.11-6.49v-9.98c-0.52-0.57-1.32-1.09-2.38-1.57s-2.1-0.72-3.1-0.72
		c-2.91,0-5.26,1.11-7.04,3.33s-2.67,5.33-2.67,9.33c0,3.74,0.78,6.49,2.35,8.25c1.57,1.76,3.43,2.64,5.61,2.64
		C107.88,273.3,109,272.91,110.1,272.15z"/>
	<path d="M156.22,271.79c0.5,0.65,1.6,0.98,3.29,0.98c0,1.26-0.13,2.26-0.39,3c-1.13,0.09-2.41,0.32-3.85,0.68
		c-1.43,0.37-2.63,0.82-3.59,1.34c-0.57-0.26-0.98-0.62-1.24-1.08c-0.26-0.46-0.39-1.36-0.39-2.71c0-0.96,0.07-1.87,0.2-2.74
		c-0.39,0.91-1.09,1.87-2.09,2.87c-1.17,1.17-2.39,2.02-3.65,2.54c-1.26,0.52-2.76,0.78-4.5,0.78c-3.09,0-5.41-0.89-6.98-2.67
		s-2.35-4.76-2.35-8.94v-9.85c0-1.17-0.09-2.06-0.26-2.67c-0.17-0.61-0.57-1.08-1.17-1.4s-1.57-0.51-2.87-0.55
		c0-1,0.15-1.8,0.46-2.41c1.35-0.09,2.82-0.35,4.4-0.78c1.59-0.43,2.88-0.91,3.88-1.43c0.96,0.3,1.43,1.26,1.43,2.87v14.81
		c0,3.04,0.41,5.32,1.24,6.82c0.83,1.5,2.22,2.25,4.17,2.25c2.26,0,4.1-0.95,5.51-2.84c1.41-1.89,2.12-4.66,2.12-8.32v-6.65
		c0-1.13-0.12-2.01-0.36-2.64c-0.24-0.63-0.71-1.11-1.4-1.44c-0.7-0.33-1.74-0.51-3.13-0.55c0-0.61,0.02-1.08,0.07-1.4
		c0.04-0.33,0.17-0.66,0.39-1.01c1.65-0.09,3.29-0.3,4.92-0.65c1.63-0.35,2.95-0.76,3.95-1.24c0.96,0.3,1.43,1.26,1.43,2.87v18.72
		C155.47,269.99,155.72,271.14,156.22,271.79z"/>
	<path d="M188.24,270.72c0.2,0.67,0.58,1.16,1.14,1.47c0.56,0.3,1.43,0.5,2.61,0.59c0,1.26-0.13,2.26-0.39,3
		c-1.09,0.09-2.29,0.32-3.62,0.68c-1.33,0.37-2.49,0.82-3.49,1.34c-0.52-0.22-0.91-0.62-1.17-1.21c-0.26-0.59-0.39-1.47-0.39-2.64
		c0-0.74,0.02-1.3,0.07-1.7c-0.52,1.26-1.28,2.33-2.28,3.2c-1.7,1.48-4,2.22-6.91,2.22c-2.7,0-4.77-0.61-6.23-1.83
		c-1.46-1.22-2.18-2.91-2.18-5.09c0-2.57,0.93-4.62,2.8-6.16c1.87-1.54,3.96-2.64,6.26-3.29c2.3-0.65,4.85-1.17,7.63-1.57
		c0-2.65-0.09-4.49-0.26-5.51c-0.17-1.02-0.54-1.88-1.11-2.58c-1.04-1.3-2.39-1.96-4.04-1.96c-1.96,0-3.38,0.81-4.27,2.41
		c-0.89,1.61-1.38,3.33-1.47,5.15c-0.57,0-1.2-0.04-1.89-0.13c-0.7-0.09-1.2-0.2-1.5-0.33c0.04-0.43,0.06-1.17,0.06-2.22
		c0-1.91-0.13-3.54-0.39-4.89c1.74-0.91,3.61-1.63,5.61-2.15c2-0.52,3.83-0.78,5.48-0.78c2.96,0,5.26,0.83,6.91,2.48
		c1.04,1.04,1.76,2.42,2.15,4.14s0.59,4.1,0.59,7.14v7.18C187.95,269.03,188.05,270.04,188.24,270.72z M182.08,262.4
		c-2.09,0.26-3.83,0.58-5.22,0.95c-1.39,0.37-2.6,1.04-3.62,2.02c-1.02,0.98-1.53,2.34-1.53,4.08c0,1.52,0.37,2.67,1.11,3.46
		c0.74,0.78,1.67,1.17,2.8,1.17c1.04,0,2.05-0.33,3.03-0.98c0.98-0.65,1.79-1.67,2.45-3.07c0.65-1.39,0.98-3.11,0.98-5.15V262.4z"/>
	<path d="M220.63,248.9c-0.3,2-0.46,4.57-0.46,7.7c-1.17,0.39-2.41,0.59-3.72,0.59c-0.09-1.96-0.4-3.29-0.95-4.01
		c-0.54-0.72-1.29-1.08-2.25-1.08c-0.78,0-1.61,0.42-2.48,1.27c-0.87,0.85-1.6,1.99-2.18,3.42c-0.59,1.44-0.88,2.96-0.88,4.57v6.26
		c0,1.87,0.2,3.29,0.59,4.27c0.39,0.98,0.99,1.65,1.79,2.02c0.8,0.37,1.95,0.6,3.42,0.68c0.22,0.61,0.33,1.54,0.33,2.8
		c-2-0.13-4.74-0.2-8.22-0.2c-4.04,0-6.91,0.07-8.61,0.2c0-1.26,0.11-2.2,0.33-2.8c1.74-0.09,2.92-0.51,3.55-1.27
		c0.63-0.76,0.95-2.23,0.95-4.4v-12.92c0-1.13-0.12-2.01-0.36-2.64c-0.24-0.63-0.71-1.11-1.4-1.44s-1.74-0.51-3.13-0.55
		c0-1,0.2-1.8,0.59-2.41c1.35-0.09,2.89-0.35,4.63-0.78c1.74-0.43,3.11-0.91,4.11-1.43c0.96,0.3,1.43,1.26,1.43,2.87
		c0,1.48-0.13,2.86-0.39,4.14c-0.26,1.28-0.41,2.03-0.46,2.25c0.09-0.26,0.26-0.78,0.52-1.57c0.26-0.78,0.54-1.39,0.85-1.83
		c2.22-3.52,4.85-5.28,7.89-5.28C217.78,247.34,219.28,247.86,220.63,248.9z"/>
	<path d="M249.42,271.27c0.33,0.39,0.51,0.76,0.55,1.11c-1.48,1.91-3.16,3.29-5.05,4.14c-1.89,0.85-4.08,1.27-6.56,1.27
		c-3,0-5.53-0.68-7.6-2.05c-2.07-1.37-3.62-3.23-4.66-5.58c-1.04-2.35-1.57-4.98-1.57-7.89c0-2.83,0.55-5.41,1.66-7.76
		c1.11-2.35,2.68-4.23,4.73-5.64c2.04-1.41,4.41-2.12,7.11-2.12c3.96,0,6.9,1.23,8.84,3.68c1.93,2.46,3.05,5.73,3.36,9.82
		c-0.17,0.87-0.5,1.61-0.98,2.22c-7.65,0-13.74,0.11-18.26,0.33c0.22,3.35,1.05,6.08,2.51,8.19c1.46,2.11,3.77,3.16,6.95,3.16
		c1.48,0,2.91-0.33,4.3-0.98c1.39-0.65,2.61-1.59,3.65-2.8C248.76,270.58,249.1,270.88,249.42,271.27z M233.02,252.1
		c-1.22,1.48-1.91,3.96-2.09,7.44h12.52c0-2.91-0.53-5.25-1.6-7.01c-1.07-1.76-2.53-2.64-4.4-2.64
		C235.72,249.88,234.24,250.62,233.02,252.1z"/>
</g>
</svg>
