<?xml version="1.0" encoding="utf-8"?>
<!-- Generator: Adobe Illustrator 23.0.1, SVG Export Plug-In . SVG Version: 6.00 Build 0)  -->
<svg version="1.1" id="Layer_1" xmlns="http://www.w3.org/2000/svg" xmlns:xlink="http://www.w3.org/1999/xlink" x="0px" y="0px"
	 viewBox="0 0 483.16 64.35" style="enable-background:new 0 0 483.16 64.35;" xml:space="preserve">
<g>
	<path d="M31.73,19.69h6.16l8.86,27h-5.2l-1.87-5.83H29.65l-1.91,5.83h-5.2L31.73,19.69z M30.9,37.17h7.57l-3.74-11.61L30.9,37.17z"
		/>
	<path d="M51.54,18.15h4.91V46.7h-4.91V18.15z"/>
	<path d="M81.18,28.85c1.71,1.94,2.56,4.49,2.56,7.66s-0.9,5.77-2.7,7.82c-1.75,1.97-3.93,2.96-6.53,2.96c-1.25,0-2.39-0.33-3.43-1
		c-1.04-0.67-1.87-1.69-2.48-3.08l-1.21,3.5h-3.2V18.15h4.91v10.86c1.28-2.05,3.18-3.08,5.72-3.08
		C77.35,25.93,79.48,26.91,81.18,28.85z M69.09,35.34V38c0.06,1.42,0.57,2.58,1.54,3.5c0.92,0.89,2.03,1.33,3.35,1.33
		c1.32,0,2.45-0.58,3.39-1.73c0.94-1.15,1.42-2.67,1.42-4.56c0-1.89-0.46-3.39-1.39-4.51c-0.93-1.12-2.09-1.69-3.47-1.69
		s-2.54,0.46-3.45,1.37C69.55,32.63,69.09,33.84,69.09,35.34z"/>
	<path d="M105.4,31.97c0.35,1.17,0.52,2.23,0.52,3.2c0,0.97-0.06,1.85-0.17,2.62H92.69c0.06,1.64,0.46,2.97,1.21,3.99
		c0.75,1.03,1.89,1.54,3.41,1.54c2.02,0,3.23-0.89,3.62-2.66h4.95c-0.33,2.03-1.26,3.62-2.79,4.79c-1.58,1.22-3.51,1.83-5.78,1.83
		c-2.66,0-4.9-0.97-6.7-2.91c-1.86-2.02-2.79-4.62-2.79-7.78c0-3.25,0.93-5.85,2.79-7.82c1.77-1.89,4.01-2.83,6.7-2.83
		c2.8,0,4.98,0.99,6.53,2.95C104.53,29.78,105.05,30.8,105.4,31.97z M97.35,29.85c-1.39,0-2.47,0.45-3.25,1.35
		c-0.78,0.9-1.23,2.06-1.37,3.47h8.61c0-2.19-0.69-3.66-2.08-4.41C98.73,29.98,98.1,29.85,97.35,29.85z"/>
	<path d="M116.69,30.47c1.22-2.91,3.05-4.37,5.49-4.37c0.47,0,1.07,0.1,1.79,0.29l-0.08,4.91c-0.78-0.17-1.54-0.25-2.29-0.25
		c-3.27,0-4.91,2.26-4.91,6.78v8.86h-4.91V26.43h4.91V30.47z"/>
	<path d="M140.49,46.2c-1.83,0.72-3.27,1.08-4.33,1.08c-1.05,0-1.98-0.13-2.77-0.38s-1.49-0.62-2.1-1.12
		c-1.28-1.14-1.91-2.71-1.91-4.7V29.76h-2.83v-3.29h2.83v-5.33h4.91v5.33h5.49v3.29h-5.49v11.15c0,1.66,0.79,2.5,2.37,2.5
		c0.8,0,1.84-0.22,3.12-0.67L140.49,46.2z"/>
	<path d="M163.09,19.69l7.41,16.06l7.41-16.06h6.78v27h-4.95V26.18l-7.66,17.56h-3.2l-7.91-18.14v21.1h-4.91v-27H163.09z"/>
	<path d="M208.09,31.97c0.35,1.17,0.52,2.23,0.52,3.2c0,0.97-0.06,1.85-0.17,2.62h-13.07c0.06,1.64,0.46,2.97,1.21,3.99
		c0.75,1.03,1.89,1.54,3.41,1.54c2.02,0,3.23-0.89,3.62-2.66h4.95c-0.33,2.03-1.26,3.62-2.79,4.79c-1.58,1.22-3.51,1.83-5.78,1.83
		c-2.66,0-4.9-0.97-6.7-2.91c-1.86-2.02-2.79-4.62-2.79-7.78c0-3.25,0.93-5.85,2.79-7.82c1.77-1.89,4.01-2.83,6.7-2.83
		c2.8,0,4.98,0.99,6.53,2.95C207.22,29.78,207.74,30.8,208.09,31.97z M200.04,29.85c-1.39,0-2.47,0.45-3.25,1.35
		c-0.78,0.9-1.23,2.06-1.37,3.47h8.61c0-2.19-0.69-3.66-2.08-4.41C201.42,29.98,200.79,29.85,200.04,29.85z"/>
	<path d="M232.45,30.3c1.3-2.91,3.59-4.37,6.87-4.37c2.41,0,4.29,0.82,5.62,2.46c1.28,1.55,1.91,3.72,1.91,6.49V46.7h-4.95V34.88
		c0-1.5-0.36-2.63-1.08-3.39c-0.72-0.76-1.73-1.14-3.04-1.14s-2.37,0.57-3.2,1.71c-0.83,1.14-1.28,2.86-1.33,5.16v9.49h-4.91V34.88
		c0-1.5-0.36-2.63-1.08-3.39c-0.72-0.76-1.73-1.14-3.04-1.14c-1.3,0-2.42,0.58-3.35,1.75c-0.93,1.17-1.42,2.91-1.48,5.24v9.36h-4.91
		V26.47h4.29l0.54,3.5c1.33-2.69,3.47-4.04,6.41-4.04c1.69,0,3.1,0.39,4.22,1.17C231.06,27.88,231.89,28.94,232.45,30.3z"/>
	<path d="M261.91,25.93c1.36,0,2.63,0.22,3.83,0.65c1.19,0.43,2.22,1.09,3.08,1.98c1.91,1.94,2.87,4.63,2.87,8.07
		c0,3.38-0.96,6.05-2.87,7.99c-1.72,1.78-4.02,2.66-6.91,2.66c-2.89,0-5.22-0.89-6.99-2.66c-1.91-1.91-2.87-4.58-2.87-7.99
		c0-3.47,0.96-6.16,2.87-8.07C256.67,26.81,259,25.93,261.91,25.93z M266.78,36.59c0-2.14-0.42-3.74-1.25-4.81
		c-0.83-1.07-1.99-1.6-3.47-1.6c-1.48,0-2.7,0.53-3.64,1.6c-0.94,1.07-1.42,2.67-1.42,4.81c0,2.14,0.42,3.74,1.27,4.81
		c0.85,1.07,2,1.6,3.47,1.6c1.47,0,2.68-0.53,3.62-1.6C266.3,40.32,266.78,38.72,266.78,36.59z"/>
	<path d="M282.42,30.47c1.22-2.91,3.05-4.37,5.49-4.37c0.47,0,1.07,0.1,1.79,0.29l-0.08,4.91c-0.78-0.17-1.54-0.25-2.29-0.25
		c-3.27,0-4.91,2.26-4.91,6.78v8.86h-4.91V26.43h4.91V30.47z"/>
	<path d="M294.65,19.94c0-0.89,0.26-1.59,0.79-2.1c0.53-0.51,1.28-0.77,2.25-0.77c0.94,0,1.69,0.26,2.23,0.77
		c0.54,0.51,0.81,1.21,0.81,2.1c0,0.89-0.27,1.59-0.81,2.1c-0.54,0.51-1.28,0.77-2.23,0.77c-0.97,0-1.72-0.26-2.25-0.77
		C294.92,21.53,294.65,20.83,294.65,19.94z M295.24,26.43h4.91V46.7h-4.91V26.43z"/>
	<path d="M315.13,34.88c1.61,0,3.47,0.26,5.58,0.79v-2c0-1.42-0.28-2.46-0.85-3.14c-0.57-0.68-1.5-1.02-2.79-1.02
		s-2.28,0.26-2.97,0.77c-0.69,0.51-1.04,1.24-1.04,2.18h-5.37c0-2.3,0.81-3.97,2.43-4.99c1.62-1.03,3.89-1.54,6.8-1.54
		c4.16,0,6.85,1.46,8.07,4.37c0.42,1,0.62,2.18,0.62,3.54V46.7h-4.29l-0.37-2.71c-1.3,2.19-3.3,3.29-5.99,3.29
		c-2.61,0-4.63-0.64-6.07-1.91c-1.33-1.22-2-2.77-2-4.64c0-1.87,0.74-3.31,2.21-4.33C310.56,35.39,312.57,34.88,315.13,34.88z
		 M320.7,38.79c-1.64-0.44-3.16-0.67-4.58-0.67c-2.66,0-3.99,0.89-3.99,2.66c0,0.75,0.3,1.39,0.92,1.93s1.59,0.81,2.93,0.81
		s2.46-0.45,3.33-1.35S320.65,40.15,320.7,38.79z"/>
	<path d="M332.77,18.15h4.91V46.7h-4.91V18.15z"/>
	<path d="M365.64,19.15c1.66,0,3.11,0.2,4.33,0.6c1.22,0.4,2.27,0.96,3.16,1.69c1.75,1.42,2.88,3.4,3.41,5.95l-5.24,0.96
		c-0.44-1.41-1.13-2.56-2.06-3.43c-0.93-0.87-2.09-1.31-3.47-1.31c-1.89,0-3.41,0.79-4.58,2.37c-1.25,1.72-1.87,4.1-1.87,7.14
		s0.55,5.41,1.66,7.11c1.11,1.71,2.62,2.56,4.54,2.56s3.36-0.46,4.33-1.39c0.97-0.93,1.46-2.13,1.46-3.6h5.28
		c0,3.02-0.96,5.36-2.89,7.01c-1.93,1.65-4.57,2.48-7.93,2.48c-3.58,0-6.42-1.25-8.53-3.75c-2.14-2.55-3.2-6.02-3.2-10.4
		c0-4.44,1.09-7.91,3.29-10.4C359.42,20.35,362.2,19.15,365.64,19.15z"/>
	<path d="M382.32,18.15h4.91V46.7h-4.91V18.15z"/>
	<path d="M402.92,25.93c1.36,0,2.63,0.22,3.83,0.65c1.19,0.43,2.22,1.09,3.08,1.98c1.91,1.94,2.87,4.63,2.87,8.07
		c0,3.38-0.96,6.05-2.87,7.99c-1.72,1.78-4.02,2.66-6.91,2.66c-2.89,0-5.22-0.89-6.99-2.66c-1.91-1.91-2.87-4.58-2.87-7.99
		c0-3.47,0.96-6.16,2.87-8.07C397.68,26.81,400.01,25.93,402.92,25.93z M407.79,36.59c0-2.14-0.42-3.74-1.25-4.81
		c-0.83-1.07-1.99-1.6-3.47-1.6c-1.48,0-2.7,0.53-3.64,1.6c-0.94,1.07-1.42,2.67-1.42,4.81c0,2.14,0.42,3.74,1.27,4.81
		c0.85,1.07,2,1.6,3.47,1.6c1.47,0,2.68-0.53,3.62-1.6C407.31,40.32,407.79,38.72,407.79,36.59z"/>
	<path d="M426.22,25.93c1.28,0,2.42,0.22,3.43,0.65c1.01,0.43,1.87,0.99,2.56,1.69c1.39,1.33,2.21,3.01,2.46,5.03l-4.95,0.12
		c-0.22-0.89-0.63-1.62-1.23-2.21s-1.28-0.87-2.06-0.87c-0.78,0-1.44,0.12-2,0.35c-0.56,0.24-1.04,0.6-1.46,1.1
		c-0.94,1.17-1.42,2.77-1.42,4.83s0.44,3.6,1.33,4.64c0.89,1.04,1.96,1.56,3.22,1.56c1.26,0,2.18-0.3,2.75-0.89
		c0.57-0.6,0.85-1.41,0.85-2.43h4.95c0,2.22-0.74,4.06-2.21,5.53c-1.5,1.5-3.59,2.25-6.28,2.25c-2.66,0-4.9-0.97-6.7-2.91
		c-1.91-2.08-2.87-4.67-2.87-7.78c0-3.27,0.96-5.9,2.87-7.86C421.28,26.86,423.53,25.93,426.22,25.93z"/>
	<path d="M447.73,36.84l-2.25,1.87v7.99h-4.91V18.15h4.91v15.44l7.99-7.12h6.66l-8.95,7.49l9.45,12.73h-5.99L447.73,36.84z"/>
</g>
</svg>
